<mxfile host="app.diagrams.net" modified="2020-05-13T22:53:58.160Z" agent="5.0 (Windows NT 10.0; Win64; x64) AppleWebKit/537.36 (KHTML, like Gecko) Chrome/81.0.4044.138 Safari/537.36" etag="1DemByZy5ddFp-6KSxPE" version="13.1.0" type="github">
  <diagram id="_qM-AVNLChrF2hcbL-Zo" name="Page-1">
    <mxGraphModel dx="782" dy="469" grid="1" gridSize="10" guides="1" tooltips="1" connect="1" arrows="1" fold="1" page="1" pageScale="1" pageWidth="827" pageHeight="1169" math="0" shadow="0">
      <root>
        <mxCell id="0" />
        <mxCell id="1" parent="0" />
        <mxCell id="S2lybX9tMjAJ1X6aFVFA-1" value="" style="ellipse;html=1;shape=startState;fillColor=#000000;strokeColor=#ff0000;" parent="1" vertex="1">
          <mxGeometry x="384" y="20" width="30" height="30" as="geometry" />
        </mxCell>
        <mxCell id="S2lybX9tMjAJ1X6aFVFA-2" value="" style="edgeStyle=orthogonalEdgeStyle;html=1;verticalAlign=bottom;endArrow=open;endSize=8;strokeColor=#ff0000;" parent="1" source="S2lybX9tMjAJ1X6aFVFA-1" edge="1">
          <mxGeometry relative="1" as="geometry">
            <mxPoint x="399" y="110" as="targetPoint" />
          </mxGeometry>
        </mxCell>
        <mxCell id="S2lybX9tMjAJ1X6aFVFA-3" value="Go to Dashboard/ Clients" style="rounded=1;whiteSpace=wrap;html=1;arcSize=40;fontColor=#000000;fillColor=#ffffc0;strokeColor=#ff0000;" parent="1" vertex="1">
          <mxGeometry x="340" y="110" width="120" height="40" as="geometry" />
        </mxCell>
        <mxCell id="S2lybX9tMjAJ1X6aFVFA-5" value="View Clients Table" style="rounded=1;whiteSpace=wrap;html=1;arcSize=40;fontColor=#000000;fillColor=#ffffc0;strokeColor=#ff0000;" parent="1" vertex="1">
          <mxGeometry x="340" y="220" width="120" height="40" as="geometry" />
        </mxCell>
        <mxCell id="S2lybX9tMjAJ1X6aFVFA-6" value="" style="edgeStyle=orthogonalEdgeStyle;html=1;verticalAlign=bottom;endArrow=open;endSize=8;strokeColor=#ff0000;" parent="1" source="S2lybX9tMjAJ1X6aFVFA-5" edge="1">
          <mxGeometry relative="1" as="geometry">
            <mxPoint x="400" y="310" as="targetPoint" />
          </mxGeometry>
        </mxCell>
        <mxCell id="S2lybX9tMjAJ1X6aFVFA-7" value="Select a Client to deactivate his/ her account" style="rounded=1;whiteSpace=wrap;html=1;arcSize=40;fontColor=#000000;fillColor=#ffffc0;strokeColor=#ff0000;" parent="1" vertex="1">
          <mxGeometry x="340" y="310" width="120" height="40" as="geometry" />
        </mxCell>
        <mxCell id="S2lybX9tMjAJ1X6aFVFA-8" value="" style="edgeStyle=orthogonalEdgeStyle;html=1;verticalAlign=bottom;endArrow=open;endSize=8;strokeColor=#ff0000;" parent="1" source="S2lybX9tMjAJ1X6aFVFA-7" edge="1">
          <mxGeometry relative="1" as="geometry">
            <mxPoint x="400" y="410" as="targetPoint" />
          </mxGeometry>
        </mxCell>
        <mxCell id="S2lybX9tMjAJ1X6aFVFA-12" value="" style="rhombus;whiteSpace=wrap;html=1;fillColor=#ffffc0;strokeColor=#ff0000;" parent="1" vertex="1">
          <mxGeometry x="359" y="410" width="80" height="40" as="geometry" />
        </mxCell>
        <mxCell id="S2lybX9tMjAJ1X6aFVFA-13" value="Keep Client&lt;br&gt;Deactivated" style="edgeStyle=orthogonalEdgeStyle;html=1;align=left;verticalAlign=bottom;endArrow=open;endSize=8;strokeColor=#ff0000;" parent="1" source="S2lybX9tMjAJ1X6aFVFA-12" edge="1">
          <mxGeometry x="-1" relative="1" as="geometry">
            <mxPoint x="510" y="430" as="targetPoint" />
          </mxGeometry>
        </mxCell>
        <mxCell id="S2lybX9tMjAJ1X6aFVFA-14" value="" style="edgeStyle=orthogonalEdgeStyle;html=1;align=left;verticalAlign=top;endArrow=open;endSize=8;strokeColor=#ff0000;" parent="1" source="S2lybX9tMjAJ1X6aFVFA-12" edge="1">
          <mxGeometry x="-1" relative="1" as="geometry">
            <mxPoint x="399" y="500" as="targetPoint" />
            <Array as="points">
              <mxPoint x="399" y="500" />
              <mxPoint x="399" y="500" />
            </Array>
          </mxGeometry>
        </mxCell>
        <mxCell id="S2lybX9tMjAJ1X6aFVFA-15" value="Activate &lt;br&gt;Client" style="text;html=1;align=center;verticalAlign=middle;resizable=0;points=[];autosize=1;" parent="1" vertex="1">
          <mxGeometry x="334" y="445" width="60" height="30" as="geometry" />
        </mxCell>
        <mxCell id="S2lybX9tMjAJ1X6aFVFA-17" value="Client cannot login" style="rounded=1;whiteSpace=wrap;html=1;arcSize=40;fontColor=#000000;fillColor=#ffffc0;strokeColor=#ff0000;" parent="1" vertex="1">
          <mxGeometry x="510" y="410" width="120" height="40" as="geometry" />
        </mxCell>
        <mxCell id="S2lybX9tMjAJ1X6aFVFA-18" value="" style="edgeStyle=orthogonalEdgeStyle;html=1;verticalAlign=bottom;endArrow=open;endSize=8;strokeColor=#ff0000;" parent="1" source="S2lybX9tMjAJ1X6aFVFA-17" edge="1">
          <mxGeometry relative="1" as="geometry">
            <mxPoint x="570" y="600" as="targetPoint" />
          </mxGeometry>
        </mxCell>
        <mxCell id="S2lybX9tMjAJ1X6aFVFA-19" value="Client can login" style="rounded=1;whiteSpace=wrap;html=1;arcSize=40;fontColor=#000000;fillColor=#ffffc0;strokeColor=#ff0000;" parent="1" vertex="1">
          <mxGeometry x="340" y="500" width="120" height="40" as="geometry" />
        </mxCell>
        <mxCell id="S2lybX9tMjAJ1X6aFVFA-20" value="" style="edgeStyle=orthogonalEdgeStyle;html=1;verticalAlign=bottom;endArrow=open;endSize=8;strokeColor=#ff0000;" parent="1" source="S2lybX9tMjAJ1X6aFVFA-19" edge="1">
          <mxGeometry relative="1" as="geometry">
            <mxPoint x="400" y="600" as="targetPoint" />
          </mxGeometry>
        </mxCell>
        <mxCell id="S2lybX9tMjAJ1X6aFVFA-21" value="" style="shape=line;html=1;strokeWidth=6;strokeColor=#ff0000;" parent="1" vertex="1">
          <mxGeometry x="384" y="600" width="200" height="10" as="geometry" />
        </mxCell>
        <mxCell id="S2lybX9tMjAJ1X6aFVFA-22" value="" style="edgeStyle=orthogonalEdgeStyle;html=1;verticalAlign=bottom;endArrow=open;endSize=8;strokeColor=#ff0000;" parent="1" source="S2lybX9tMjAJ1X6aFVFA-21" edge="1">
          <mxGeometry relative="1" as="geometry">
            <mxPoint x="484" y="680" as="targetPoint" />
          </mxGeometry>
        </mxCell>
        <mxCell id="S2lybX9tMjAJ1X6aFVFA-23" value="" style="ellipse;html=1;shape=endState;fillColor=#000000;strokeColor=#ff0000;" parent="1" vertex="1">
          <mxGeometry x="469" y="680" width="30" height="30" as="geometry" />
        </mxCell>
        <mxCell id="S2lybX9tMjAJ1X6aFVFA-24" value="" style="edgeStyle=orthogonalEdgeStyle;html=1;verticalAlign=bottom;endArrow=open;endSize=8;strokeColor=#ff0000;exitX=0.5;exitY=1;exitDx=0;exitDy=0;entryX=0.5;entryY=0;entryDx=0;entryDy=0;" parent="1" source="S2lybX9tMjAJ1X6aFVFA-3" target="S2lybX9tMjAJ1X6aFVFA-5" edge="1">
          <mxGeometry relative="1" as="geometry">
            <mxPoint x="410" y="320" as="targetPoint" />
            <mxPoint x="410" y="270" as="sourcePoint" />
          </mxGeometry>
        </mxCell>
      </root>
    </mxGraphModel>
  </diagram>
</mxfile>
